<svg class="svg-icon" style="width: 1em; height: 1em;vertical-align: middle;fill: currentColor;overflow: hidden;" viewBox="0 0 1024 1024" version="1.1" xmlns="http://www.w3.org/2000/svg"><path d="M448 938.666667c-14.933333 0-29.866667-8.533333-36.266667-21.333334l-136.533333-234.666666H128c-23.466667 0-42.666667-19.2-42.666667-42.666667V128c0-23.466667 19.2-42.666667 42.666667-42.666667h597.333333c117.333333 0 213.333333 96 213.333334 213.333334v341.333333c0 23.466667-19.2 42.666667-42.666667 42.666667H640v128c0 70.4-57.6 128-128 128h-64zM341.333333 170.666667v458.666666L473.6 853.333333H512c23.466667 0 42.666667-19.2 42.666667-42.666666v-170.666667c0-23.466667 19.2-42.666667 42.666666-42.666667h256V298.666667c0-70.4-57.6-128-128-128H341.333333zM170.666667 597.333333h85.333333V170.666667H170.666667v426.666666z" fill="#2F3CF4" /></svg>